<?xml version="1.0" encoding="UTF-8" standalone="yes"?>
<svg version="1.2" baseProfile="tiny-ps" viewBox="0 0 320 320" xmlns="http://www.w3.org/2000/svg">
  <title>bimi-svg-tiny-12-ps</title>
  <g>
    <g fill="#fff" transform="matrix(.1 0 0 -.1 0 320)">
      <path d="M0 1600V0h3200v3200H0V1600z"/>
    </g>
    <g fill="#e2e7d6" transform="matrix(.1 0 0 -.1 0 320)">
      <path d="M1011 2545c-145-306-261-558-258-561 6-6 154 40 172 54 6 4 17 22 25 39l15 33 144-409 143-409 92 33c50 18 312 110 581 206 270 95 492 174 494 175 2 2-136 398-287 822l-5 14 42-22 42-21 90 32c49 17 89 34 89 38 0 3-100 54-223 112l-222 105-51 144c-29 79-56 151-61 159l-10 15-61-18c-34-11-62-22-62-26 0-3 13-45 29-93 17-48 28-87 26-87s-107 50-234 110c-127 61-234 110-238 110s-127-250-272-555zm610 235l273-129-25-9c-141-54-765-272-771-270l-8 3 128 268c70 147 128 267 129 267s124-58 274-130zm493-629c69-195 125-355 123-356-1-1-202-73-445-160l-444-157-8 8c-7 8-246 682-252 712l-3 13 445 157 445 158 7-11c3-5 63-169 132-364zM815 1897c-33-12-66-26-73-30l-12-8v-197l14-75c47-244 205-459 427-581 88-48 165-74 278-92l94-15 81 6c249 20 464 134 618 328 72 91 143 245 162 349l7 37-77-27-77-27-9-25c-6-14-28-62-50-107l-39-82-78-83-78-83-78-44-78-45-79-23-80-23h-215l-77 20-77 19-68 36c-172 91-300 248-357 440l-18 60-1 115c0 63 3 130 7 148l8 32-8-1c-4 0-34-10-67-22zm729-562c-8-20-26-61-39-92-14-30-25-61-25-68v-13l97-41 97-41 7 8c11 12 82 192 78 196-5 5-190 86-196 86-2 0-11-16-19-35zM910 396V190h100v130h28l27-1 44-64 43-65h119l-7 12c-4 7-26 40-50 74l-43 61 23 13c13 7 30 24 37 38l14 25v117l-33 32-32 33-135 3-135 4V396zm226 99l16-24-9-28-9-27-25-7c-13-4-41-7-61-8l-38-1v120h110l16-25zm233-100l-87-205h106l19 45 18 45h162l17-45 18-45h108l-13 33c-8 17-47 110-88 205l-73 172h-101l-86-205zm161 19c11-26 20-48 20-50s-20-4-44-4h-45l21 50c11 28 22 50 24 50s12-21 24-46zm240-19V190h100l1 118 1 117 49-102 49-103h60l49 98 50 97V303l1-113h100v411l-66-3-67-3-48-104-47-104-46 98c-25 54-46 102-46 106v9h-140V395z"/>
    </g>
    <g fill="#c9e187" transform="matrix(.1 0 0 -.1 0 320)">
      <path d="M1261 3063c-75-148-511-1077-507-1081 3-2 45 10 93 27l88 32 15 36 15 35 140-397c77-218 143-402 147-408l7-11 573 203c315 112 576 206 580 210l6 6-144 405c-79 223-144 408-144 412s19-1 41-11l41-19 91 31 90 30-15 11c-8 6-110 56-226 111l-210 100-53 150c-28 83-55 154-59 159l-8 8-54-17c-29-10-56-21-61-24l-7-7 30-83c17-46 28-86 26-89-3-2-106 44-228 103-123 59-228 109-235 112l-12 5-20-39zm360-280c148-70 269-130 269-133 0-5-803-291-806-287-2 4 259 547 264 547 2 0 125-57 273-127zm493-627c70-197 125-360 124-362-7-6-881-314-892-314h-11l-125 357c-69 196-125 361-125 366v10l445 157 445 158 6-7c3-3 63-167 133-365zM798 1889l-57-20-7-46-7-46 6-87 7-86 25-88c44-152 112-262 231-377 104-99 221-166 359-205l60-16 130-5 130-5 90 21 90 21 90 45 91 45 67 55c37 30 91 85 122 122l54 66 40 76c39 76 81 196 81 233v19l-22-7c-13-3-46-15-73-25l-50-19-23-64c-13-36-42-94-64-128l-41-63-67-65-67-65-69-38c-84-47-159-73-253-88l-71-12-93 11-92 10-65 22c-36 12-96 40-135 62l-70 41-75 76-75 76-48 95-48 95-15 75-16 75 5 118 4 117-11-1c-6 0-37-10-68-20zm721-620c-23-54-40-101-38-103s47-22 100-44l97-40 41 99c23 55 41 101 41 103s-8 6-17 9c-10 2-55 21-100 40l-81 36-43-100zM910 395V190h100v130h57l44-65 44-65h116l-49 71-49 70 34 34 33 33v128l-16 23-17 23-33 14-33 14H910V395zm224 109l16-15v-57l-16-13-15-12-55-5-54-4v122h109l15-16zm323 89c-8-13-167-392-167-398 0-3 22-5 49-5h48l18 45 17 46 86-3 85-3 16-43 15-42h96v8c0 5-37 96-83 203l-83 194-46 3-46 3-5-8zm67-156c7-19 17-43 20-55l7-22h-93l5 13c28 71 40 97 43 97 2 0 10-15 18-33zm246-42V190h100v245l52-107 51-108h55l54 108 53 107 3-122 3-123h89v410h-127l-48-105c-26-58-51-105-54-105s-27 47-52 103l-46 102-67 3-66 3V395z"/>
    </g>
    <g fill="#b5b5b1" transform="matrix(.1 0 0 -.1 0 320)">
      <path d="M1261 3062c-75-147-511-1076-507-1080 3-2 45 10 93 27l88 32 15 36 15 35 140-397c77-218 143-402 147-408l7-11 573 203c315 112 576 206 580 210l6 6-144 405c-79 223-144 408-144 412s19-1 41-11l41-19 90 30 90 30-9 9c-4 4-107 55-228 113l-219 106-54 152c-29 84-54 154-56 155-1 2-30-6-63-17l-60-21 33-94 33-94-42 19c-23 10-131 61-240 114-110 53-201 96-203 96s-12-17-23-38zm360-279c148-70 269-130 269-133 0-5-803-291-806-287-2 4 259 547 264 547 2 0 125-57 273-127zm493-627c70-197 125-360 124-362-7-6-881-314-892-314h-11l-125 357c-69 196-125 361-125 366v10l445 157 445 158 6-7c3-3 63-167 133-365zM804 1888l-62-21-6-61-6-61 10-86c29-254 156-462 369-608l74-51 79-30c43-17 116-38 161-46l82-16 110 5 110 6 75 22c212 61 390 201 503 394 37 64 80 176 91 237l7 37-55-19c-72-25-96-38-96-54 0-8-21-56-47-107l-46-93-86-86-86-86-82-42-82-43-77-19-77-20h-172l-70 15-70 15-94 46-95 47-86 86-87 86-39 70-38 70-24 80-24 80-1 100c-1 55 2 117 6 138l8 37-8-1c-4 0-36-10-69-21zm747-549c-5-13-23-57-40-97l-30-73 42-18c23-10 66-28 95-41 29-12 54-21 57-19 8 9 75 171 75 182v12l-78 32c-42 18-85 35-94 39l-18 6-9-23zM910 395V190h100v130h57l44-65 44-65h116l-49 71-49 70 34 34 33 33v128l-16 23-17 23-33 14-33 14H910V395zm224 109l16-15v-57l-16-13-15-12-55-5-54-4v122h109l15-16zm323 89c-8-13-167-392-167-398 0-3 22-5 49-5h48l18 45 17 46 86-3 85-3 16-43 15-42h96v8c0 5-37 96-83 203l-83 194-46 3-46 3-5-8zm67-156c7-19 17-43 20-55l7-22h-93l5 13c28 71 40 97 43 97 2 0 10-15 18-33zm246-42V190h100v245l52-107 51-108h55l54 108 53 107 3-122 3-123h89v410h-127l-48-105c-26-58-51-105-54-105s-27 47-52 103l-46 102-67 3-66 3V395z"/>
    </g>
    <g fill="#a5cd38" transform="matrix(.1 0 0 -.1 0 320)">
      <path d="M1238 3012c-23-48-142-298-264-556-123-258-222-471-221-473 3-3 114 33 158 51 9 4 24 23 33 44l18 36 8-14c4-8 69-192 145-407 76-216 141-393 144-393s265 92 581 205l575 204-3 13c-2 7-67 192-144 411-77 218-138 400-135 403s22-3 44-14l38-19 90 33 90 32-130 62c-71 34-175 84-230 110l-100 47-54 157-54 157-11-4c-6-2-34-12-62-21l-51-17 33-94c18-52 32-95 30-95s-93 43-203 96c-109 53-217 105-241 115l-43 19-41-88zm386-229c146-69 266-129 266-132 0-7-801-294-805-289-2 2 48 111 112 243 63 132 121 255 128 273 8 17 18 32 23 32 6 0 130-57 276-127zm490-622c70-199 126-364 123-367s-205-77-449-164l-443-158-6 7c-10 9-263 731-258 734 11 9 885 314 894 313l10-3 129-362zM804 1888l-62-21-6-61-6-61 10-86c29-254 156-462 369-608l74-51 79-30c43-17 116-38 161-46l82-16 110 5 110 6 75 22c212 61 390 201 503 394 37 64 80 176 91 237l7 37-55-19c-72-25-96-38-96-54 0-8-21-56-47-107l-46-93-86-86-86-86-82-42-82-43-77-19-77-20h-172l-70 15-70 15-94 46-95 47-86 86-87 86-39 70-38 70-24 80-24 80-1 100c-1 55 2 117 6 138l8 37-8-1c-4 0-36-10-69-21zm747-549c-5-13-23-57-40-97l-30-73 42-18c23-10 66-28 95-41 29-12 54-21 57-19 8 9 75 171 75 182v12l-78 32c-42 18-85 35-94 39l-18 6-9-23zM920 395V190h80v130h69l43-62 44-63 52-3c29-2 52 0 52 4 0 3-21 36-46 72l-45 65 24 21c14 12 30 31 36 43l11 22v96l-20 32-19 32-38 10-38 11H920V395zm218 113l12-12v-65l-22-15-22-16h-106v120h126l12-12zm242-100c-45-106-84-199-87-205l-5-13h93l20 45 20 45h170l19-45 19-45h92l-5 18c-3 10-42 101-85 202l-80 185-44 3-45 3-82-193zm158 0l21-48h-50c-27 0-49 3-49 6s10 28 21 55l22 50 7-8c4-4 17-29 28-55zm242-13V190h79l3 128 3 127 58-113 58-113 22 3 22 3 57 110 57 110 1-127V190h90v410h-129l-6-20c-3-11-26-62-50-112l-43-93-53 113-52 112h-117V395z"/>
    </g>
    <g fill="#94ac50" transform="matrix(.1 0 0 -.1 0 320)">
      <path d="M1590 2945c14-8 30-14 35-14 6 0-1 6-15 14s-29 14-35 14c-5 0 1-6 15-14zm-255-35l-6-10 15 6c18 7 21 14 7 14-6 0-13-4-16-10zm-387-507c-109-229-196-418-195-420 3-3 113 33 158 51 9 4 24 23 33 44l18 36 8-14c4-8 69-192 145-407 76-216 141-393 144-393s265 92 581 205l575 204-3 13c-2 7-66 190-143 407s-138 399-136 405l3 10-119 58-120 59-6-9c-5-7-791-292-806-292-4 0 27 68 128 282l55 116-58 31c-32 17-59 31-61 31-2-1-93-188-201-417zm1166-242c70-199 126-364 123-367s-205-77-449-164l-443-158-6 7c-10 9-263 731-258 734 11 9 885 314 894 313l10-3 129-362zm-74 569c8-5 20-10 25-10h10l-15 10c-8 5-19 10-25 10h-10l15-10zM920 395V190h80v130h69l43-62 44-63 52-3c29-2 52 0 52 4 0 3-21 36-46 72l-45 65 24 21c14 12 30 31 36 43l11 22v96l-20 32-19 32-38 10-38 11H920V395zm218 113l12-12v-65l-22-15-22-16h-106v120h126l12-12zm242-100c-45-106-84-199-87-205l-5-13h93l20 45 20 45h170l19-45 19-45h92l-5 18c-3 10-42 101-85 202l-80 185-44 3-45 3-82-193zm158 0l21-48h-50c-27 0-49 3-49 6s10 28 21 55l22 50 7-8c4-4 17-29 28-55zm242-13V190h79l3 128 3 127 58-113 58-113 22 3 22 3 57 110 57 110 1-127V190h90v410h-129l-6-20c-3-11-26-62-50-112l-43-93-53 113-52 112h-117V395z"/>
    </g>
    <g fill="#8b8889" transform="matrix(.1 0 0 -.1 0 320)">
      <path d="M948 2403c-109-229-196-418-195-420 3-3 113 33 158 51 9 4 24 23 33 44l18 36 8-14c4-8 69-192 145-407 76-216 141-393 144-393s265 92 581 204l575 205-3 13c-1 7-67 195-145 418l-144 405-108 53-108 53-410-146c-225-80-411-144-412-143-2 2 39 91 90 198l92 195-59 32c-32 18-59 33-61 33-1-1-91-188-199-417zm1166-242c70-199 126-364 123-367s-205-77-449-164l-443-158-6 7c-10 9-263 731-258 734 11 9 885 314 894 313l10-3 129-362zM920 395V190h80v130h69l43-62 44-63 52-3c29-2 52 0 52 4 0 3-21 36-46 72l-45 65 24 21c14 12 30 31 36 43l11 22v96l-20 32-19 32-38 10-38 11H920V395zm218 113l12-12v-65l-22-15-22-16h-106v120h126l12-12zm242-100c-45-106-84-199-87-205l-5-13h93l20 45 20 45h170l19-45 19-45h92l-5 18c-3 10-42 101-85 202l-80 185-44 3-45 3-82-193zm158 0l21-48h-50c-27 0-49 3-49 6s10 28 21 55l22 50 7-8c4-4 17-29 28-55zm242-13V190h79l3 128 3 127 58-113 58-113 22 3 22 3 57 110 57 110 1-127V190h90v410h-129l-6-20c-3-11-26-62-50-112l-43-93-53 113-52 112h-117V395z"/>
    </g>
    <g fill="#686665" transform="matrix(.1 0 0 -.1 0 320)">
      <path d="M1095 2708c-29-62-119-250-199-418-80-167-144-306-142-307 2-2 41 11 88 28l85 30 19 40 19 40 144-408c79-224 145-409 146-411 4-4 1139 399 1149 409l9 8-118 333c-65 183-131 371-148 417l-30 83-104 49-104 48-410-145c-226-80-412-144-415-142-2 2 38 92 90 199l93 195-59 32-59 32-54-112zm1019-543l129-366-9-8c-10-9-895-323-898-319-6 9-256 726-256 734v10l443 156c243 86 447 157 452 157l10 1 129-365zM920 395V190h80v130h75l43-65 42-65h50c28 0 50 2 50 5 0 2-21 34-46 70l-47 67 27 25c33 30 46 62 46 110v35l-16 33-16 33-39 16-39 16H920V395zm218 111l15-15-1-33-1-32-17-13-18-13h-116v58c0 32 3 62 8 66l7 8 54-5 54-6 15-15zm283-8c-24-57-63-149-87-205l-43-103h88l20 45 20 45h176l18-45 19-45h90l-4 9c-1 4-41 96-87 205l-83 196h-84l-43-102zm98-40c5-13 16-40 25-60l16-38h-109l26 60c15 33 28 60 30 60s7-10 12-22zm261-63V190h79l3 133 3 132 54-112 54-113h52l57 113 57 112V323l1-133h80v410h-111l-51-110c-28-60-54-110-57-110s-28 50-56 110l-49 110h-116V395z"/>
    </g>
    <g fill="#464342" transform="matrix(.1 0 0 -.1 0 320)">
      <path d="M1146 2812c-16-28-386-814-386-821v-8l85 30 84 31 16 39c9 22 18 38 20 35 2-2 67-183 145-403s144-403 148-406l7-6 567 201c312 111 570 205 574 208l6 7-148 416-147 416-104 49-103 49-410-146c-226-80-413-144-416-141-2 3 33 85 80 182s87 185 91 195l6 19-56 30c-30 17-57 27-59 24zm971-649l130-368-11-6c-22-13-897-321-900-318-7 8-256 721-256 733v13l438 155c240 86 444 156 453 157l16 1 130-367zM920 396V190h80v131l15 5c8 4 26 3 39 0l23-6 43-65 42-65h99l-10 18c-5 9-27 41-48 70l-39 54 32 32 32 32 8 39 7 39-14 40-14 39-28 21-28 21-120 4-119 3V396zm197 123c32-12 43-26 43-56v-23l-20-20-20-20h-120v130h44c25 0 57-5 73-11zm262-124l-87-205h86l19 45 18 45h183l18-45 17-45h86l-35 83c-20 45-58 137-87 205l-51 122h-40l-41-1-86-204zm157 30c13-31 24-58 24-60 0-3-25-5-55-5h-55l9 23c24 61 42 97 47 97 3 0 16-25 30-55zm244-30V190h79l3 133 3 132 55-112 55-112h25l25-1 57 113 57 112V323l1-133h80v411l-55-3-56-3-48-105c-27-57-53-106-58-107l-9-3-51 110-51 110h-112V395z"/>
    </g>
    <g fill="#221e20" transform="matrix(.1 0 0 -.1 0 320)">
      <path d="M952 2403c-106-223-190-408-188-411 3-2 40 9 83 24l79 28 18 40 18 41 17-40c10-22 75-205 146-407l130-368h12c13 0 1133 396 1140 403 2 2-63 191-144 420l-147 416-98 46c-54 25-105 45-113 45s-198-65-421-145c-224-80-408-144-410-142-1 1 41 91 93 201 51 109 92 200 91 201-26 17-99 55-105 55-4-1-95-184-201-407zm1067 40c17-49 76-214 130-368l100-280-7-6c-12-10-902-322-907-318-5 6-265 742-262 744 10 8 886 314 898 314l17 1 31-87zM920 395V190h80v141l38-3 37-3 45-67 45-67 48-1h48l-50 71-50 71 33 32 33 31 7 37 7 38-11 38-10 39-17 15c-10 9-36 21-58 27l-40 11H920V395zm226 110c8-10 14-30 14-44v-24l-17-19-16-18h-127v132l66-4 66-4 14-19zm321 88c-8-13-167-392-167-398 0-3 17-5 39-5h38l18 45 17 46 96-3 95-3 16-43 15-42h76v8c0 5-37 96-83 203l-82 194-37 3-36 3-5-8zm72-169c11-31 21-58 21-60s-25-4-55-4-55 2-55 5c0 15 50 115 58 115 5 0 19-25 31-56zm241-29V190h80v260h8c4 0 31-49 59-110l51-110 24 1h23l52 110 52 109h21V190h70v410h-106l-54-115-53-116-10 10c-5 5-31 56-57 113l-47 103-57 3-56 3V395z"/>
    </g>
  </g>
</svg>